<svg width="235" height="100" viewBox="0 0 235 100" fill="none" xmlns="http://www.w3.org/2000/svg">
<g clip-path="url(#clip0_69142_19)">
<path d="M113.904 76.672C113.563 76.672 113.285 76.5547 113.072 76.32C112.859 76.0853 112.752 75.6693 112.752 75.072C112.752 74.624 112.891 73.8987 113.168 72.896C113.467 71.872 113.861 70.6773 114.352 69.312C114.864 67.9467 115.429 66.5067 116.048 64.992C116.688 63.456 117.349 61.9307 118.032 60.416C118.715 58.9013 119.387 57.504 120.048 56.224C120.709 54.9227 121.317 53.824 121.872 52.928C122.427 52.032 122.896 51.4453 123.28 51.168C123.728 50.848 124.144 50.688 124.528 50.688C124.741 50.688 124.955 50.7093 125.168 50.752C125.381 50.7947 125.563 50.8693 125.712 50.976C126.096 51.2107 126.427 51.7333 126.704 52.544C127.003 53.3333 127.259 54.304 127.472 55.456C127.685 56.5867 127.856 57.8027 127.984 59.104C128.133 60.384 128.261 61.6533 128.368 62.912C129.008 62.8267 129.541 62.7627 129.968 62.72C130.395 62.6773 130.704 62.656 130.896 62.656C131.621 62.656 132.08 62.752 132.272 62.944C132.464 63.136 132.571 63.36 132.592 63.616C132.635 64 132.528 64.3413 132.272 64.64C132.016 64.9387 131.653 65.1627 131.184 65.312C131.035 65.3547 130.715 65.4293 130.224 65.536C129.755 65.6213 129.189 65.728 128.528 65.856C128.549 66.496 128.56 67.0933 128.56 67.648C128.581 68.1813 128.592 68.64 128.592 69.024C128.592 70.9653 128.475 72.4267 128.24 73.408C128.005 74.368 127.717 75.0187 127.376 75.36C127.035 75.7013 126.704 75.872 126.384 75.872C126 75.872 125.733 75.7653 125.584 75.552C125.435 75.3173 125.36 74.9867 125.36 74.56V72.288C125.36 71.4987 125.349 70.6027 125.328 69.6C125.328 68.576 125.317 67.4987 125.296 66.368C124.037 66.5813 122.757 66.784 121.456 66.976C120.176 67.168 119.067 67.3387 118.128 67.488C117.659 68.704 117.253 69.8027 116.912 70.784C116.571 71.744 116.336 72.48 116.208 72.992C115.888 74.0587 115.6 74.8587 115.344 75.392C115.088 75.904 114.843 76.2453 114.608 76.416C114.395 76.5867 114.16 76.672 113.904 76.672ZM119.216 64.64C120.325 64.384 121.381 64.1493 122.384 63.936C123.408 63.7227 124.347 63.5413 125.2 63.392C125.136 61.472 125.019 59.6373 124.848 57.888C124.699 56.1173 124.475 54.72 124.176 53.696C123.771 54.4 123.291 55.3387 122.736 56.512C122.181 57.6853 121.595 58.9867 120.976 60.416C120.379 61.824 119.792 63.232 119.216 64.64ZM137.844 85.504C137.482 85.504 137.194 85.376 136.98 85.12C136.788 84.864 136.692 84.3733 136.692 83.648C136.692 82.6027 136.767 81.3867 136.916 80C137.066 78.6133 137.268 77.1413 137.524 75.584C137.802 74.0267 138.1 72.4693 138.42 70.912C138.762 69.3547 139.114 67.872 139.476 66.464C139.86 65.056 140.234 63.808 140.596 62.72C140.959 61.6107 141.29 60.736 141.588 60.096C141.908 59.456 142.186 59.136 142.42 59.136C142.826 59.136 143.146 59.2533 143.38 59.488C143.636 59.7227 143.764 60.0747 143.764 60.544C143.764 61.1413 143.583 62.112 143.22 63.456C142.858 64.7787 142.388 66.5067 141.812 68.64C142.346 67.6587 142.922 66.6347 143.54 65.568C144.159 64.5013 144.81 63.4667 145.492 62.464C146.175 61.44 146.858 60.5227 147.54 59.712C148.244 58.9013 148.927 58.2507 149.588 57.76C150.25 57.2693 150.89 57.024 151.508 57.024C152.17 57.024 152.756 57.2373 153.268 57.664C153.78 58.0693 154.175 58.624 154.452 59.328C154.751 60.0107 154.9 60.7787 154.9 61.632C154.9 63.4027 154.602 65.12 154.004 66.784C153.407 68.4267 152.575 69.9093 151.508 71.232C150.463 72.5333 149.226 73.568 147.796 74.336C146.388 75.104 144.863 75.488 143.22 75.488C142.602 75.488 142.047 75.456 141.556 75.392C141.066 75.328 140.639 75.2533 140.276 75.168C140.02 76.576 139.775 78.0267 139.54 79.52C139.306 81.0133 139.071 82.6027 138.836 84.288C138.772 84.736 138.666 85.0453 138.516 85.216C138.367 85.408 138.143 85.504 137.844 85.504ZM152.084 59.456C151.636 59.456 151.103 59.712 150.484 60.224C149.887 60.736 149.236 61.4187 148.532 62.272C147.85 63.104 147.156 64.032 146.452 65.056C145.748 66.0587 145.066 67.0827 144.404 68.128C143.743 69.1733 143.135 70.144 142.58 71.04C142.047 71.936 141.61 72.6827 141.268 73.28C142.932 73.2373 144.394 72.9067 145.652 72.288C146.911 71.648 147.988 70.8373 148.884 69.856C149.78 68.8533 150.506 67.776 151.06 66.624C151.636 65.4507 152.052 64.32 152.308 63.232C152.564 62.1227 152.692 61.1627 152.692 60.352C152.692 59.7547 152.49 59.456 152.084 59.456ZM158.188 85.504C157.825 85.504 157.537 85.376 157.324 85.12C157.132 84.864 157.036 84.3733 157.036 83.648C157.036 82.6027 157.111 81.3867 157.26 80C157.409 78.6133 157.612 77.1413 157.868 75.584C158.145 74.0267 158.444 72.4693 158.764 70.912C159.105 69.3547 159.457 67.872 159.82 66.464C160.204 65.056 160.577 63.808 160.94 62.72C161.303 61.6107 161.633 60.736 161.932 60.096C162.252 59.456 162.529 59.136 162.764 59.136C163.169 59.136 163.489 59.2533 163.724 59.488C163.98 59.7227 164.108 60.0747 164.108 60.544C164.108 61.1413 163.927 62.112 163.564 63.456C163.201 64.7787 162.732 66.5067 162.156 68.64C162.689 67.6587 163.265 66.6347 163.884 65.568C164.503 64.5013 165.153 63.4667 165.836 62.464C166.519 61.44 167.201 60.5227 167.884 59.712C168.588 58.9013 169.271 58.2507 169.932 57.76C170.593 57.2693 171.233 57.024 171.852 57.024C172.513 57.024 173.1 57.2373 173.612 57.664C174.124 58.0693 174.519 58.624 174.796 59.328C175.095 60.0107 175.244 60.7787 175.244 61.632C175.244 63.4027 174.945 65.12 174.348 66.784C173.751 68.4267 172.919 69.9093 171.852 71.232C170.807 72.5333 169.569 73.568 168.14 74.336C166.732 75.104 165.207 75.488 163.564 75.488C162.945 75.488 162.391 75.456 161.9 75.392C161.409 75.328 160.983 75.2533 160.62 75.168C160.364 76.576 160.119 78.0267 159.884 79.52C159.649 81.0133 159.415 82.6027 159.18 84.288C159.116 84.736 159.009 85.0453 158.86 85.216C158.711 85.408 158.487 85.504 158.188 85.504ZM172.428 59.456C171.98 59.456 171.447 59.712 170.828 60.224C170.231 60.736 169.58 61.4187 168.876 62.272C168.193 63.104 167.5 64.032 166.796 65.056C166.092 66.0587 165.409 67.0827 164.748 68.128C164.087 69.1733 163.479 70.144 162.924 71.04C162.391 71.936 161.953 72.6827 161.612 73.28C163.276 73.2373 164.737 72.9067 165.996 72.288C167.255 71.648 168.332 70.8373 169.228 69.856C170.124 68.8533 170.849 67.776 171.404 66.624C171.98 65.4507 172.396 64.32 172.652 63.232C172.908 62.1227 173.036 61.1627 173.036 60.352C173.036 59.7547 172.833 59.456 172.428 59.456Z" fill="black"/>
<path d="M83.472 25.488C82.5973 25.488 81.9787 25.4453 81.616 25.36C81.2533 25.2533 81.0293 25.1147 80.944 24.944C80.88 24.7733 80.848 24.6027 80.848 24.432C80.848 24.1973 80.9653 23.984 81.2 23.792C81.456 23.5787 81.968 23.408 82.736 23.28C83.7173 23.0667 84.8693 22.8533 86.192 22.64C87.536 22.4053 88.9653 22.192 90.48 22C91.9947 21.7867 93.5093 21.5947 95.024 21.424C96.56 21.2533 98.0213 21.1253 99.408 21.04C100.816 20.9333 102.064 20.88 103.152 20.88C104.603 20.88 105.584 21.008 106.096 21.264C106.629 21.52 106.896 21.7973 106.896 22.096C106.896 22.3733 106.747 22.6293 106.448 22.864C106.171 23.0987 105.691 23.216 105.008 23.216C104.731 23.216 104.091 23.28 103.088 23.408C102.085 23.5147 100.859 23.664 99.408 23.856C97.9787 24.0267 96.464 24.2187 94.864 24.432C94.7573 25.1573 94.5973 26.1173 94.384 27.312C94.1707 28.4853 93.9253 29.776 93.648 31.184C93.392 32.592 93.1253 34.0107 92.848 35.44C92.592 36.848 92.3467 38.16 92.112 39.376C91.8987 40.592 91.7173 41.5947 91.568 42.384C91.4187 43.1733 91.3333 43.6427 91.312 43.792C91.2267 44.4533 91.0347 44.9547 90.736 45.296C90.4587 45.616 90.1493 45.776 89.808 45.776C89.4027 45.776 89.0613 45.6053 88.784 45.264C88.528 44.9013 88.4 44.272 88.4 43.376C88.4 43.0773 88.464 42.5013 88.592 41.648C88.72 40.7733 88.8907 39.7387 89.104 38.544C89.3173 37.3493 89.552 36.08 89.808 34.736C90.064 33.392 90.32 32.08 90.576 30.8C90.832 29.4987 91.0667 28.3253 91.28 27.28C91.4933 26.2133 91.6533 25.3813 91.76 24.784C90.0747 24.976 88.4853 25.1467 86.992 25.296C85.52 25.424 84.3467 25.488 83.472 25.488ZM107.151 46.32C105.892 46.32 104.9 45.84 104.175 44.88C103.449 43.92 103.087 42.672 103.087 41.136C103.087 40.5813 103.161 39.9947 103.311 39.376C103.481 38.736 103.695 38.16 103.951 37.648C103.801 37.4987 103.684 37.296 103.599 37.04C103.513 36.7627 103.471 36.4213 103.471 36.016C103.471 34.7573 103.684 33.6053 104.111 32.56C104.537 31.5147 105.103 30.608 105.807 29.84C106.511 29.0507 107.289 28.4427 108.143 28.016C109.017 27.5893 109.903 27.376 110.799 27.376C112.271 27.376 113.465 27.9093 114.383 28.976C115.3 30.0213 115.759 31.6213 115.759 33.776C115.759 34.9067 115.588 36.0587 115.247 37.232C114.927 38.4053 114.479 39.536 113.903 40.624C113.348 41.712 112.697 42.6827 111.951 43.536C111.225 44.3893 110.447 45.072 109.615 45.584C108.804 46.0747 107.983 46.32 107.151 46.32ZM106.063 36.56C106.191 36.7307 106.255 36.9547 106.255 37.232C106.255 37.552 106.191 37.872 106.063 38.192C105.956 38.512 105.839 38.9493 105.711 39.504C105.583 40.0587 105.519 40.848 105.519 41.872C105.519 42.896 105.924 43.408 106.735 43.408C107.631 43.408 108.463 43.056 109.231 42.352C109.999 41.6267 110.681 40.6987 111.279 39.568C111.876 38.4373 112.335 37.232 112.655 35.952C112.996 34.6507 113.167 33.424 113.167 32.272C113.167 31.5253 113.028 31.0027 112.751 30.704C112.473 30.384 111.972 30.224 111.247 30.224C110.5 30.224 109.721 30.48 108.911 30.992C108.121 31.4827 107.46 32.1547 106.927 33.008C106.393 33.8613 106.127 34.8213 106.127 35.888C106.127 36.1227 106.105 36.3467 106.063 36.56ZM131.757 29.904C132.333 28.5173 132.877 27.088 133.389 25.616C133.922 24.144 134.402 22.64 134.829 21.104C134.957 20.6773 135.149 20.336 135.405 20.08C135.682 19.8027 136.002 19.664 136.365 19.664C136.621 19.664 136.834 19.76 137.005 19.952C137.197 20.144 137.293 20.4 137.293 20.72C137.293 21.1253 137.133 21.8293 136.812 22.832C136.514 23.8347 136.13 25.104 135.661 26.64C135.213 28.176 134.754 29.9467 134.285 31.952C133.837 33.936 133.453 36.1333 133.133 38.544C132.834 40.9547 132.685 43.5253 132.685 46.256C132.685 46.8533 132.557 47.344 132.301 47.728C132.045 48.1333 131.735 48.336 131.373 48.336C131.159 48.336 130.957 48.2827 130.765 48.176C130.573 48.0693 130.402 47.8133 130.253 47.408C130.125 47.024 130.018 46.416 129.933 45.584C129.847 44.7307 129.805 43.5787 129.805 42.128C129.805 41.0187 129.869 39.8133 129.997 38.512C129.015 40.2827 127.949 41.8293 126.797 43.152C125.666 44.4533 124.567 45.456 123.501 46.16C122.455 46.864 121.559 47.216 120.812 47.216C119.895 47.216 119.149 46.9067 118.573 46.288C118.018 45.6907 117.741 44.7947 117.741 43.6C117.741 42.5547 117.986 41.4773 118.477 40.368C118.967 39.2587 119.618 38.1707 120.429 37.104C121.239 36.016 122.135 34.992 123.117 34.032C124.098 33.072 125.079 32.2293 126.061 31.504C127.063 30.7573 127.991 30.1813 128.845 29.776C129.698 29.3493 130.391 29.136 130.925 29.136C131.138 29.136 131.33 29.2107 131.501 29.36C131.671 29.5093 131.757 29.6907 131.757 29.904ZM131.341 30.896C131.191 31.0453 131.01 31.1947 130.797 31.344C130.583 31.4933 130.349 31.6533 130.093 31.824C129.154 32.4853 128.119 33.2533 126.989 34.128C125.879 34.9813 124.813 35.92 123.789 36.944C122.786 37.9467 121.965 39.0027 121.325 40.112C120.685 41.2213 120.365 42.3627 120.365 43.536C120.365 44.048 120.621 44.304 121.133 44.304C121.837 44.304 122.605 43.9733 123.437 43.312C124.29 42.6293 125.165 41.6907 126.061 40.496C126.957 39.28 127.853 37.8613 128.749 36.24C129.645 34.5973 130.509 32.816 131.341 30.896ZM143.87 46.32C142.611 46.32 141.619 45.84 140.894 44.88C140.168 43.92 139.806 42.672 139.806 41.136C139.806 40.5813 139.88 39.9947 140.03 39.376C140.2 38.736 140.414 38.16 140.67 37.648C140.52 37.4987 140.403 37.296 140.318 37.04C140.232 36.7627 140.19 36.4213 140.19 36.016C140.19 34.7573 140.403 33.6053 140.83 32.56C141.256 31.5147 141.822 30.608 142.526 29.84C143.23 29.0507 144.008 28.4427 144.862 28.016C145.736 27.5893 146.622 27.376 147.518 27.376C148.99 27.376 150.184 27.9093 151.102 28.976C152.019 30.0213 152.478 31.6213 152.478 33.776C152.478 34.9067 152.307 36.0587 151.966 37.232C151.646 38.4053 151.198 39.536 150.622 40.624C150.067 41.712 149.416 42.6827 148.67 43.536C147.944 44.3893 147.166 45.072 146.334 45.584C145.523 46.0747 144.702 46.32 143.87 46.32ZM142.782 36.56C142.91 36.7307 142.974 36.9547 142.974 37.232C142.974 37.552 142.91 37.872 142.782 38.192C142.675 38.512 142.558 38.9493 142.43 39.504C142.302 40.0587 142.238 40.848 142.238 41.872C142.238 42.896 142.643 43.408 143.454 43.408C144.35 43.408 145.182 43.056 145.95 42.352C146.718 41.6267 147.4 40.6987 147.998 39.568C148.595 38.4373 149.054 37.232 149.374 35.952C149.715 34.6507 149.886 33.424 149.886 32.272C149.886 31.5253 149.747 31.0027 149.47 30.704C149.192 30.384 148.691 30.224 147.966 30.224C147.219 30.224 146.44 30.48 145.63 30.992C144.84 31.4827 144.179 32.1547 143.646 33.008C143.112 33.8613 142.846 34.8213 142.846 35.888C142.846 36.1227 142.824 36.3467 142.782 36.56Z" fill="black"/>
<path d="M71 50C67.6906 50 65 52.4344 65 55.4286V82.5714C65 85.5656 67.6906 88 71 88H101C104.309 88 107 85.5656 107 82.5714V55.4286C107 52.4344 104.309 50 101 50H71ZM96.5938 65.0134L84.5938 75.8705C83.7125 76.6679 82.2875 76.6679 81.4156 75.8705L75.4156 70.442C74.5344 69.6446 74.5344 68.3554 75.4156 67.5665C76.2969 66.7777 77.7219 66.7692 78.5938 67.5665L83 71.5531L93.4062 62.1295C94.2875 61.3321 95.7125 61.3321 96.5844 62.1295C97.4562 62.9268 97.4656 64.2161 96.5844 65.0049L96.5938 65.0134Z" fill="#F35570"/>
</g>
<defs>
<clipPath id="clip0_69142_19">
<rect width="235" height="100" fill="white"/>
</clipPath>
</defs>
</svg>
